<?xml version="1.0" standalone="no"?>
<!DOCTYPE svg PUBLIC "-//W3C//DTD SVG 20010904//EN"
 "http://www.w3.org/TR/2001/REC-SVG-20010904/DTD/svg10.dtd">
<svg version="1.0" xmlns="http://www.w3.org/2000/svg"
 width="240.000000pt" height="240.000000pt" viewBox="0 0 240.000000 240.000000"
 preserveAspectRatio="xMidYMid meet">

<g transform="translate(0.000000,240.000000) scale(0.100000,-0.100000)"
fill="#000000" stroke="none">
<path d="M0 1200 l0 -1200 1200 0 1200 0 0 1200 0 1200 -1200 0 -1200 0 0
-1200z m1449 821 c117 -39 189 -77 270 -142 l62 -51 102 93 c102 93 97 84 -21
-43 l-62 -66 55 -74 c188 -247 232 -561 118 -847 -38 -96 -154 -269 -191 -285
-8 -3 1 12 20 34 61 75 86 114 80 129 -3 9 -1 12 6 7 7 -4 12 -1 12 8 0 28
-16 17 -53 -36 -20 -29 -67 -80 -104 -112 -37 -33 -58 -49 -45 -35 34 38 27
41 -35 14 -31 -14 -61 -24 -66 -22 -6 2 25 16 67 33 64 24 87 39 130 85 69 74
166 262 166 322 0 10 6 20 13 23 20 7 11 218 -14 330 -23 106 -85 236 -150
318 -42 53 -63 67 -71 47 -1 -6 -89 -99 -194 -208 -278 -288 -266 -274 -267
-332 -1 -47 1 -51 83 -142 46 -52 96 -107 110 -124 23 -27 21 -27 -15 5 -22
19 -69 63 -105 97 -36 34 -74 69 -85 77 -11 9 -14 16 -7 16 6 0 12 7 12 15 0
12 -4 14 -16 7 -9 -5 -38 -5 -65 -1 -28 4 -57 5 -65 2 -17 -6 -18 1 -2 26 6
11 8 26 3 37 -4 11 -8 24 -7 29 1 6 -51 64 -114 130 -105 109 -168 185 -121
147 9 -8 21 -11 26 -7 6 3 8 0 5 -8 -3 -10 34 -50 110 -118 115 -103 116 -103
168 -104 l53 0 240 235 c132 129 242 239 244 243 10 25 -137 128 -243 171 -76
30 -213 56 -296 56 -189 0 -408 -92 -523 -220 -55 -61 -93 -170 -109 -313 -10
-92 -9 -112 11 -210 12 -59 30 -131 41 -160 28 -73 8 -88 -23 -16 -52 118 -62
175 -61 329 1 102 6 159 17 193 8 26 12 47 9 47 -20 0 -86 -136 -119 -243 -28
-94 -32 -262 -8 -366 5 -22 4 -31 -3 -27 -6 3 -13 -2 -15 -11 -3 -13 -5 -10
-6 7 -1 18 -4 21 -10 11 -7 -11 -10 -10 -15 5 -25 81 -26 272 0 383 16 72 77
207 122 273 94 136 240 256 387 317 116 49 190 61 340 57 114 -3 142 -8 224
-35z m-279 -95 c0 -3 -4 -8 -10 -11 -5 -3 -10 -1 -10 4 0 6 5 11 10 11 6 0 10
-2 10 -4z m-595 -86 c10 -11 16 -20 13 -20 -3 0 -13 9 -23 20 -10 11 -16 20
-13 20 3 0 13 -9 23 -20z m635 -125 c0 -8 -4 -17 -10 -20 -6 -4 -10 5 -10 20
0 15 4 24 10 20 6 -3 10 -12 10 -20z m-412 -89 c3 -13 -1 -17 -14 -14 -11 2
-20 11 -22 22 -3 13 1 17 14 14 11 -2 20 -11 22 -22z m917 -96 c3 -5 1 -10 -4
-10 -6 0 -11 5 -11 10 0 6 2 10 4 10 3 0 8 -4 11 -10z m75 -174 c0 -8 -4 -17
-8 -20 -13 -8 -35 11 -28 23 10 16 36 14 36 -3z m-995 -146 c3 -5 -1 -10 -9
-10 -9 0 -16 5 -16 10 0 6 4 10 9 10 6 0 13 -4 16 -10z m-115 -4 c0 -11 -19
-15 -25 -6 -3 5 1 10 9 10 9 0 16 -2 16 -4z m444 -62 c12 -5 -26 -48 -151
-170 -93 -90 -171 -164 -174 -164 -3 0 -18 13 -34 30 -15 16 -31 27 -35 25 -4
-3 -20 12 -36 32 -15 20 -22 33 -15 28 9 -5 12 -3 9 6 -3 8 -10 13 -16 12 -5
-1 -9 5 -8 15 0 9 -5 16 -12 14 -8 -1 -12 3 -10 10 3 7 -2 18 -11 25 -12 9
-13 15 -5 23 8 8 19 -2 42 -42 16 -29 53 -78 80 -108 l50 -55 29 30 c15 17 84
90 152 163 67 72 124 132 126 132 2 0 11 -3 19 -6z m656 -55 c0 -4 -9 -9 -20
-12 -22 -6 -23 -3 -13 32 6 23 7 23 20 6 7 -11 13 -22 13 -26z m-1348 -131
c-8 -8 -9 -4 -5 13 4 13 8 18 11 10 2 -7 -1 -18 -6 -23z m1173 -129 c10 -15
-1 -23 -20 -15 -9 3 -13 10 -10 16 8 13 22 13 30 -1z m-665 -125 c22 -15 40
-28 40 -31 0 -6 -40 16 -86 48 -23 16 -45 25 -49 21 -5 -4 -5 -2 -2 4 4 7 0
17 -8 24 -8 7 -15 17 -15 22 0 6 18 -6 40 -25 21 -20 57 -48 80 -63z m-181 60
c-37 -41 -110 -109 -121 -113 -6 -2 17 25 51 60 33 35 61 67 61 71 0 5 8 8 17
8 14 0 12 -5 -8 -26z m256 -112 c-3 -3 -11 0 -18 7 -9 10 -8 11 6 5 10 -3 15
-9 12 -12z m220 -73 c14 -6 7 -7 -23 -3 -44 6 -159 48 -176 64 -9 9 160 -43
199 -61z m-635 28 c0 -2 -10 -12 -22 -23 l-23 -19 19 23 c18 21 26 27 26 19z
m967 -23 c-3 -3 -12 -4 -19 -1 -8 3 -5 6 6 6 11 1 17 -2 13 -5z m-62 -15 c-38
-11 -94 -14 -170 -9 -50 3 -41 5 50 10 61 3 119 7 130 7 11 1 7 -3 -10 -8z
m75 -54 c0 -6 -56 -35 -67 -35 -4 1 8 9 27 20 39 22 40 22 40 15z"/>
<path d="M2000 1111 c0 -5 5 -13 10 -16 6 -3 10 -2 10 4 0 5 -4 13 -10 16 -5
3 -10 2 -10 -4z"/>
<path d="M1987 1048 c-20 -22 -17 -34 8 -25 8 4 15 16 15 27 0 24 0 24 -23 -2z"/>
<path d="M1965 990 c4 -6 3 -16 -2 -23 -5 -7 -14 -24 -21 -39 -9 -22 -9 -28 1
-28 6 0 13 12 13 26 1 14 10 31 20 38 17 13 12 36 -7 36 -6 0 -7 -5 -4 -10z"/>
<path d="M1925 860 c-3 -5 -1 -10 4 -10 6 0 11 5 11 10 0 6 -2 10 -4 10 -3 0
-8 -4 -11 -10z"/>
</g>
</svg>
